<svg width="40" height="40" viewBox="0 0 40 40" fill="none" xmlns="http://www.w3.org/2000/svg">
<path d="M27.7085 15.5888C27.7085 16.5361 27.6565 17.3793 27.5524 18.1184C27.4483 18.8575 27.3077 19.4925 27.1308 20.0234C26.9642 20.5439 26.73 20.9915 26.4281 21.3663C26.1366 21.7411 25.8243 22.0429 25.4912 22.272C25.1685 22.501 24.7729 22.6831 24.3045 22.8185C23.8465 22.9434 23.3884 23.0267 22.9304 23.0683C22.4828 23.11 21.9571 23.1308 21.3533 23.1308H15.1542V31.2661H12V8H20.432C21.4001 8 22.2173 8.04164 22.8835 8.12492C23.5602 8.19779 24.1848 8.33832 24.7573 8.54652C25.3299 8.75472 25.7879 9.03578 26.1314 9.38972C26.475 9.74366 26.7716 10.2069 27.0215 10.7794C27.2713 11.352 27.4431 12.0286 27.5368 12.8094C27.6409 13.5797 27.6981 14.5062 27.7085 15.5888ZM24.5543 15.417C24.5439 14.6675 24.5231 14.0586 24.4919 13.5901C24.4606 13.1217 24.3982 12.6792 24.3045 12.2628C24.2212 11.8465 24.1067 11.529 23.961 11.3103C23.8256 11.0917 23.6331 10.9044 23.3832 10.7482C23.1438 10.5817 22.8575 10.4723 22.5244 10.4203C22.2017 10.3682 21.7957 10.3422 21.3064 10.3422H15.1542V20.7729H20.6662C21.4782 20.7729 22.1392 20.7053 22.6493 20.5699C23.1594 20.4346 23.555 20.2108 23.836 19.8985C24.1275 19.5758 24.3201 19.201 24.4138 18.7742C24.5179 18.3474 24.5699 17.7957 24.5699 17.1191C24.5699 16.9525 24.5647 16.6818 24.5543 16.3071C24.5543 15.9323 24.5543 15.6357 24.5543 15.417Z" fill="#ED8BB1"/>
<rect x="1" y="1" width="38" height="38" rx="15" stroke="#ED8BB1" stroke-width="2"/>
</svg>
