<svg width="172" height="25" viewBox="0 0 172 25" fill="none" xmlns="http://www.w3.org/2000/svg">
<path d="M15.9507 8.39717C15.9507 9.34447 15.8987 10.1877 15.7946 10.9268C15.6905 11.6659 15.5499 12.3009 15.373 12.8318C15.2064 13.3523 14.9722 13.7999 14.6703 14.1747C14.3788 14.5494 14.0665 14.8513 13.7334 15.0803C13.4107 15.3093 13.0151 15.4915 12.5467 15.6268C12.0886 15.7518 11.6306 15.835 11.1726 15.8767C10.7249 15.9183 10.1992 15.9391 9.59547 15.9391H3.39638V24.0745H0.242188V0.80836H8.6742C9.64232 0.80836 10.4595 0.849999 11.1257 0.933279C11.8024 1.00615 12.427 1.14668 12.9995 1.35488C13.5721 1.56308 14.0301 1.84414 14.3736 2.19808C14.7171 2.55202 15.0138 3.01526 15.2637 3.5878C15.5135 4.16034 15.6853 4.83699 15.7789 5.61773C15.883 6.38806 15.9403 7.31454 15.9507 8.39717ZM12.7965 8.22541C12.7861 7.47589 12.7653 6.86692 12.7341 6.39847C12.7028 5.93003 12.6404 5.48761 12.5467 5.07121C12.4634 4.65481 12.3489 4.33731 12.2032 4.1187C12.0678 3.9001 11.8752 3.71272 11.6254 3.55657C11.386 3.39001 11.0997 3.28071 10.7666 3.22866C10.4439 3.17661 10.0379 3.15058 9.54863 3.15058H3.39638V13.5813H8.90842C9.72039 13.5813 10.3814 13.5136 10.8915 13.3783C11.4016 13.243 11.7972 13.0192 12.0782 12.7069C12.3697 12.3842 12.5623 12.0094 12.656 11.5826C12.7601 11.1558 12.8121 10.6041 12.8121 9.92742C12.8121 9.76086 12.8069 9.49021 12.7965 9.11545C12.7965 8.7407 12.7965 8.44401 12.7965 8.22541Z" fill="#ED8BB1"/>
<path d="M34.1582 24.0745H30.9416L29.1771 18.1252H20.5733L18.8713 24.0745H15.8264L22.9624 0.80836H27.194L34.1582 24.0745ZM28.5213 15.8767L26.5538 8.89684L24.9299 3.18181C24.3261 5.33666 23.7952 7.18962 23.3372 8.7407L21.2448 15.8767H28.5213Z" fill="#ED8BB1"/>
<path d="M48.665 24.0745H36.8446V0.80836H40.0144V21.6854H48.9773L48.665 24.0745Z" fill="#ED8BB1"/>
<path d="M63.6403 24.0745H51.8199V0.80836H54.9897V21.6854H63.9526L63.6403 24.0745Z" fill="#ED8BB1"/>
<path d="M83.2688 24.0745H80.0521L78.2876 18.1252H69.6839L67.9818 24.0745H64.9369L72.0729 0.80836H76.3045L83.2688 24.0745ZM77.6318 15.8767L75.6643 8.89684L74.0404 3.18181C73.4366 5.33666 72.9057 7.18962 72.4477 8.7407L70.3553 15.8767H77.6318Z" fill="#ED8BB1"/>
<path d="M103.241 10.3959C103.241 11.822 103.23 12.9983 103.21 13.9248C103.199 14.8409 103.152 15.783 103.069 16.7511C102.986 17.7088 102.897 18.4687 102.804 19.0309C102.71 19.593 102.533 20.1708 102.273 20.7641C102.023 21.3471 101.773 21.7843 101.523 22.0758C101.284 22.3568 100.914 22.6483 100.414 22.9502C99.9148 23.2521 99.4255 23.4551 98.9467 23.5592C98.4678 23.6633 97.8172 23.7674 96.9948 23.8715C96.1829 23.9756 95.3813 24.038 94.5901 24.0588C93.8094 24.0693 92.8153 24.0745 91.6077 24.0745H85.9551V0.80836H94.0124C95.324 0.80836 96.4327 0.865614 97.3384 0.980123C98.244 1.08422 99.0508 1.28721 99.7587 1.5891C100.477 1.88058 101.049 2.25013 101.476 2.69775C101.903 3.14538 102.252 3.74395 102.522 4.49346C102.804 5.23256 102.991 6.06535 103.085 6.99183C103.189 7.91831 103.241 9.05299 103.241 10.3959ZM100.102 10.4427C100.102 9.485 100.097 8.79795 100.087 8.38155C100.087 7.95475 100.05 7.42384 99.9773 6.78884C99.9148 6.15384 99.8211 5.72183 99.6962 5.49281C99.5817 5.25338 99.3943 4.9515 99.1341 4.58715C98.8738 4.2228 98.5667 3.99379 98.2128 3.9001C97.8693 3.796 97.4112 3.67108 96.8387 3.52534C96.2765 3.36919 95.6467 3.28071 94.9493 3.25989C94.2518 3.22866 93.4034 3.21304 92.4041 3.21304H89.125V21.6854H92.8725C93.7678 21.6854 94.4652 21.6802 94.9649 21.6698C95.4646 21.649 96.0059 21.6021 96.5888 21.5292C97.1718 21.4564 97.5986 21.3627 97.8693 21.2482C98.1503 21.1233 98.4522 20.9359 98.7749 20.686C99.0976 20.4258 99.3214 20.1343 99.4464 19.8116C99.5713 19.4785 99.6962 19.0465 99.8211 18.5156C99.946 17.9743 100.024 17.3809 100.055 16.7355C100.087 16.0901 100.102 15.3093 100.102 14.3933V10.4427Z" fill="#ED8BB1"/>
<path d="M110.534 24.0745H107.364V0.80836H110.534V24.0745Z" fill="#ED8BB1"/>
<path d="M131.661 24.0745H128.444L126.68 18.1252H118.076L116.374 24.0745H113.329L120.465 0.80836H124.697L131.661 24.0745ZM126.024 15.8767L124.057 8.89684L122.433 3.18181C121.829 5.33666 121.298 7.18962 120.84 8.7407L118.748 15.8767H126.024Z" fill="#ED8BB1"/>
<path d="M151.508 24.0745H148.213L137.127 5.6958V24.0745H134.347V0.80836H137.548L148.729 19.4369V0.80836H151.508V24.0745Z" fill="#ED8BB1"/>
<path d="M171.34 17.2508C171.34 17.9274 171.319 18.5416 171.277 19.0933C171.235 19.6346 171.157 20.1343 171.043 20.5924C170.939 21.04 170.824 21.4356 170.699 21.7791C170.574 22.1226 170.397 22.4297 170.168 22.7004C169.939 22.9606 169.71 23.1844 169.481 23.3718C169.263 23.5592 168.971 23.7205 168.607 23.8559C168.253 23.9808 167.909 24.0797 167.576 24.1525C167.243 24.2358 166.827 24.2983 166.327 24.3399C165.828 24.3816 165.349 24.4076 164.891 24.418C164.443 24.4388 163.891 24.4492 163.235 24.4492C161.997 24.4492 160.956 24.4128 160.112 24.3399C159.28 24.267 158.567 24.1109 157.973 23.8715C157.39 23.632 156.937 23.3874 156.615 23.1376C156.292 22.8773 156.037 22.4713 155.85 21.9196C155.662 21.3575 155.537 20.8214 155.475 20.3113C155.423 19.8012 155.376 19.0777 155.334 18.1408L158.223 17.6724C158.254 17.9014 158.286 18.2241 158.317 18.6405C158.379 19.2859 158.436 19.7439 158.489 20.0146C158.551 20.2749 158.666 20.5663 158.832 20.889C158.999 21.2117 159.259 21.4251 159.613 21.5292C159.967 21.6229 160.43 21.7062 161.003 21.7791C161.575 21.852 162.34 21.8884 163.298 21.8884C164.089 21.8884 164.74 21.8676 165.25 21.8259C165.76 21.7843 166.207 21.701 166.593 21.5761C166.978 21.4408 167.269 21.2898 167.467 21.1233C167.665 20.9567 167.821 20.7017 167.936 20.3581C168.06 20.0042 168.139 19.6398 168.17 19.2651C168.201 18.8903 168.211 18.3907 168.201 17.7661C168.191 16.392 168.112 15.4447 167.967 14.9242C167.831 14.3933 167.535 14.081 167.077 13.9873L159.301 12.6288C157.947 12.3998 157.005 11.8845 156.474 11.0829C155.943 10.2814 155.662 8.98533 155.631 7.19483C155.631 6.23712 155.678 5.41994 155.772 4.7433C155.876 4.05625 156.047 3.45768 156.287 2.94759C156.537 2.4271 156.839 2.0107 157.193 1.69841C157.557 1.38611 158.031 1.13627 158.613 0.948893C159.207 0.751106 159.852 0.620982 160.55 0.558523C161.258 0.485653 162.122 0.449219 163.142 0.449219C163.975 0.449219 164.688 0.470039 165.281 0.511678C165.885 0.542908 166.468 0.605367 167.03 0.699056C167.602 0.792745 168.076 0.922869 168.451 1.08943C168.826 1.25599 169.169 1.47459 169.481 1.74525C169.804 2.0055 170.054 2.3282 170.231 2.71337C170.408 3.08813 170.543 3.53055 170.637 4.04063C170.731 4.55072 170.777 5.13887 170.777 5.80511L167.998 6.44531C167.894 5.30023 167.826 4.64961 167.795 4.49346C167.67 3.96256 167.373 3.60342 166.905 3.41604C166.384 3.19743 165.297 3.08813 163.641 3.08813C162.736 3.08813 161.986 3.11415 161.393 3.1662C160.81 3.21825 160.331 3.29632 159.956 3.40042C159.582 3.49411 159.301 3.63985 159.113 3.83764C158.936 4.03543 158.816 4.24883 158.754 4.47785C158.692 4.69645 158.66 4.98793 158.66 5.35228V8.05364C158.66 9.03217 159.087 9.59431 159.941 9.74004L165.531 10.6925C166.051 10.7758 166.468 10.8487 166.78 10.9112C167.092 10.9736 167.451 11.0569 167.857 11.161C168.263 11.2651 168.581 11.3744 168.81 11.4889C169.039 11.6034 169.294 11.7492 169.575 11.9261C169.856 12.1031 170.075 12.3009 170.231 12.5195C170.387 12.7381 170.543 12.9983 170.699 13.3002C170.866 13.6021 170.986 13.9456 171.058 14.3308C171.142 14.7056 171.209 15.1376 171.261 15.6268C171.314 16.1057 171.34 16.647 171.34 17.2508Z" fill="#ED8BB1"/>
</svg>
